<svg xmlns="http://www.w3.org/2000/svg" width="184" height="154" fill="none" viewBox="0 0 184 154"><path fill="#16161A" d="M106 0V154H124.551C125.656 154 126.551 153.105 126.551 152V90.2331C126.551 89.1286 127.447 88.2331 128.551 88.2331H162.229C163.333 88.2331 164.229 87.3377 164.229 86.2331V70.5709C164.229 69.4663 163.333 68.5709 162.229 68.5709H128.551C127.447 68.5709 126.551 67.6754 126.551 66.5709V23.1103C126.551 22.0057 127.447 21.1103 128.551 21.1103H182C183.105 21.1103 184 20.2148 184 19.1103V2C184 0.895431 183.105 0 182 0H106Z"/><path fill="#16161A" d="M0 152V2C0 0.895431 0.895433 0 2 0H18.9787C19.8611 0 20.6393 0.578314 20.8938 1.42324L54.5736 113.252L88 0V71.6324C88 71.8218 87.9731 72.0103 87.9201 72.1922L64.4901 152.56C64.2412 153.413 63.459 154 62.57 154H46.4595C45.5753 154 44.7961 153.419 44.5431 152.572L20.4651 71.918V152C20.4651 153.105 19.5697 154 18.4651 154H2C0.895431 154 0 153.105 0 152Z"/></svg>