<svg xmlns="http://www.w3.org/2000/svg" width="184" height="154" fill="none" viewBox="0 0 184 154"><path fill="#fff" d="M106 0V154H125.551C126.104 154 126.551 153.552 126.551 153V89.2331C126.551 88.6809 126.999 88.2331 127.551 88.2331H163.229C163.781 88.2331 164.229 87.7854 164.229 87.2331V69.5709C164.229 69.0186 163.781 68.5709 163.229 68.5709H127.551C126.999 68.5709 126.551 68.1232 126.551 67.5709V22.1103C126.551 21.558 126.999 21.1103 127.551 21.1103H183C183.552 21.1103 184 20.6625 184 20.1103V1C184 0.447715 183.552 0 183 0H106Z"/><path fill="#fff" d="M0 153V1C0 0.447715 0.447717 0 1 0H19.7219C20.1631 0 20.5522 0.289153 20.6794 0.711619L54.5736 113.252L88 0V71.6324C88 71.8218 87.9731 72.0103 87.9201 72.1922L64.2801 153.28C64.1557 153.707 63.7646 154 63.3201 154H45.7145C45.2724 154 44.8827 153.71 44.7563 153.286L20.4651 71.918V153C20.4651 153.552 20.0174 154 19.4651 154H1C0.447715 154 0 153.552 0 153Z"/></svg>