<svg xmlns="http://www.w3.org/2000/svg" width="48" height="41" fill="none" viewBox="0 0 48 41"><path fill="#fff" d="M27.6522 0.199188V40.0285H32.0134C32.5657 40.0285 33.0134 39.5807 33.0134 39.0285V24.0191C33.0134 23.4668 33.4611 23.0191 34.0134 23.0191H41.8423C42.3946 23.0191 42.8423 22.5714 42.8423 22.0191V18.9338C42.8423 18.3815 42.3946 17.9338 41.8423 17.9338H34.0134C33.4611 17.9338 33.0134 17.4861 33.0134 16.9338V6.65897C33.0134 6.10668 33.4611 5.65897 34.0134 5.65897H47C47.5523 5.65897 48 5.21125 48 4.65897V1.19919C48 0.646904 47.5523 0.199188 47 0.199188H27.6522Z"/><path fill="#fff" d="M0 39.0285V1.19919C0 0.646903 0.447715 0.199188 0.999999 0.199188H4.59738C5.03771 0.199188 5.42622 0.487208 5.55421 0.908524L14.2366 29.4896L22.9565 0.199188V18.5115C22.9565 18.7025 22.9292 18.8925 22.8753 19.0757L16.9251 39.3106C16.7999 39.7362 16.4093 40.0285 15.9657 40.0285H12.4744C12.0332 40.0285 11.6441 39.7393 11.5169 39.3168L5.33873 18.7995V39.0285C5.33873 39.5807 4.89101 40.0285 4.33873 40.0285H1C0.447715 40.0285 0 39.5807 0 39.0285Z"/></svg>